<svg width="29" height="29" viewBox="0 0 29 29" fill="none" xmlns="http://www.w3.org/2000/svg">
<path d="M8.9 28.5C8.05556 28.5 7.33333 28.1433 6.73333 27.4298C6.13333 26.7173 5.83333 25.8685 5.83333 24.8833V10.4556L3.4 3.61111H0.5V0.5H5.2L7.4 6.72222H27.1C27.6111 6.72222 28 6.96852 28.2667 7.46111C28.5333 7.9537 28.5444 8.45926 28.3 8.97778L24.5 17.65C25.6333 17.8574 26.5836 18.4667 27.3507 19.4778C28.1169 20.4889 28.5 21.6815 28.5 23.0556C28.5 24.5593 28.0502 25.8426 27.1507 26.9056C26.2502 27.9685 25.1556 28.5 23.8667 28.5C22.5556 28.5 21.4502 27.9685 20.5507 26.9056C19.6502 25.8426 19.2 24.5593 19.2 23.0556C19.2 22.537 19.2556 22.0574 19.3667 21.6167C19.4778 21.1759 19.6333 20.7481 19.8333 20.3333L15.4667 19.8667L11.4667 26.8667C11.1778 27.3852 10.8053 27.787 10.3493 28.0722C9.89422 28.3574 9.41111 28.5 8.9 28.5ZM21.6333 17.4167L24.9333 9.83333L8.5 9.87222L10.1667 14.5C10.3444 15.0185 10.628 15.4525 11.0173 15.802C11.4058 16.1525 11.8556 16.3537 12.3667 16.4056L21.6333 17.4167ZM8.93333 25.35C8.97778 25.35 9.07778 25.2852 9.23333 25.1556L12.4667 19.5556C11.3778 19.4259 10.5222 19.121 9.9 18.6409C9.27778 18.1618 8.81111 17.663 8.5 17.1444V24.9222C8.5 25.0519 8.54444 25.1556 8.63333 25.2333C8.72222 25.3111 8.82222 25.35 8.93333 25.35ZM23.8333 25.3889C24.4111 25.3889 24.8889 25.1618 25.2667 24.7076C25.6444 24.2544 25.8333 23.7037 25.8333 23.0556C25.8333 22.3815 25.6444 21.8241 25.2667 21.3833C24.8889 20.9426 24.4111 20.7222 23.8333 20.7222C23.2778 20.7222 22.8058 20.9426 22.4173 21.3833C22.028 21.8241 21.8333 22.3815 21.8333 23.0556C21.8333 23.7037 22.028 24.2544 22.4173 24.7076C22.8058 25.1618 23.2778 25.3889 23.8333 25.3889ZM21.6333 17.4167L12.3667 16.4056L21.6333 17.4167Z" fill="#333333"/>
</svg>
