<svg width="41" height="58" viewBox="0 0 41 58" fill="none" xmlns="http://www.w3.org/2000/svg">
<path d="M20.5 58L6.00423 41.0121C3.13728 37.6522 1.18487 33.3715 0.393892 28.7112C-0.397084 24.0509 0.00889892 19.2204 1.5605 14.8306C3.11211 10.4407 5.73964 6.68864 9.11084 4.04882C12.482 1.409 16.4455 0 20.5 0C24.5545 0 28.518 1.409 31.8892 4.04882C35.2604 6.68864 37.8879 10.4407 39.4395 14.8306C40.9911 19.2204 41.3971 24.0509 40.6061 28.7112C39.8151 33.3715 37.8627 37.6522 34.9958 41.0121L20.5 58ZM31.775 37.2376C34.0047 34.6243 35.5231 31.2948 36.1382 27.6702C36.7533 24.0456 36.4374 20.2886 35.2306 16.8744C34.0237 13.4602 31.9801 10.542 29.3581 8.48886C26.7361 6.43574 23.6534 5.33989 20.5 5.33989C17.3466 5.33989 14.2639 6.43574 11.6419 8.48886C9.0199 10.542 6.97626 13.4602 5.76942 16.8744C4.56257 20.2886 4.24672 24.0456 4.86181 27.6702C5.4769 31.2948 6.9953 34.6243 9.22501 37.2376L20.5 50.451L31.775 37.2376ZM20.5 29.3629C19.2918 29.3629 18.1331 28.8005 17.2787 27.7992C16.4244 26.798 15.9444 25.4401 15.9444 24.0242C15.9444 22.6083 16.4244 21.2503 17.2787 20.2491C18.1331 19.2479 19.2918 18.6854 20.5 18.6854C21.7082 18.6854 22.8669 19.2479 23.7213 20.2491C24.5756 21.2503 25.0556 22.6083 25.0556 24.0242C25.0556 25.4401 24.5756 26.798 23.7213 27.7992C22.8669 28.8005 21.7082 29.3629 20.5 29.3629Z" fill="#333333"/>
</svg>
