<svg width="41" height="34" viewBox="0 0 41 34" fill="none" xmlns="http://www.w3.org/2000/svg">
<path d="M2.05 0H38.95C39.4937 0 40.0151 0.199007 40.3996 0.553243C40.784 0.907478 41 1.38792 41 1.88889V32.1111C41 32.6121 40.784 33.0925 40.3996 33.4468C40.0151 33.801 39.4937 34 38.95 34H2.05C1.50631 34 0.984881 33.801 0.600431 33.4468C0.215981 33.0925 0 32.6121 0 32.1111V1.88889C0 1.38792 0.215981 0.907478 0.600431 0.553243C0.984881 0.199007 1.50631 0 2.05 0ZM36.9 8.00511L20.6476 21.4162L4.1 7.96356V30.2222H36.9V8.00511ZM5.14755 3.77778L20.625 16.3616L35.8791 3.77778H5.14755Z" fill="#333333"/>
</svg>
