<svg width="26" height="29" viewBox="0 0 26 29" fill="none" xmlns="http://www.w3.org/2000/svg">
<path d="M25.707 18.293L23 15.586V12C22.9969 9.52184 22.075 7.13285 20.4126 5.29498C18.7502 3.45712 16.4654 2.30093 14 2.05V0H12V2.05C9.53457 2.30093 7.24976 3.45712 5.58737 5.29498C3.92498 7.13285 3.0031 9.52184 3 12V15.586L0.293 18.293C0.105451 18.4805 5.66374e-05 18.7348 0 19V22C0 22.2652 0.105357 22.5196 0.292893 22.7071C0.48043 22.8946 0.734784 23 1 23H8V23.777C7.97825 25.0456 8.4254 26.2777 9.25578 27.237C10.0862 28.1964 11.2414 28.8156 12.5 28.976C13.1952 29.0449 13.8971 28.9676 14.5606 28.749C15.2241 28.5304 15.8345 28.1753 16.3525 27.7066C16.8706 27.2379 17.2848 26.666 17.5685 26.0277C17.8522 25.3893 17.9992 24.6986 18 24V23H25C25.2652 23 25.5196 22.8946 25.7071 22.7071C25.8946 22.5196 26 22.2652 26 22V19C25.9999 18.7348 25.8946 18.4805 25.707 18.293ZM16 24C16 24.7956 15.6839 25.5587 15.1213 26.1213C14.5587 26.6839 13.7956 27 13 27C12.2044 27 11.4413 26.6839 10.8787 26.1213C10.3161 25.5587 10 24.7956 10 24V23H16V24ZM24 21H2V19.414L4.707 16.707C4.89455 16.5195 4.99994 16.2652 5 16V12C5 9.87827 5.84285 7.84344 7.34315 6.34315C8.84344 4.84285 10.8783 4 13 4C15.1217 4 17.1566 4.84285 18.6569 6.34315C20.1571 7.84344 21 9.87827 21 12V16C21.0001 16.2652 21.1054 16.5195 21.293 16.707L24 19.414V21Z" fill="#333333"/>
</svg>
